<mxfile host="65bd71144e">
    <diagram id="WdtMOTIhI5_XduM2dNMl" name="Page-1">
        <mxGraphModel dx="1449" dy="1060" grid="1" gridSize="10" guides="1" tooltips="1" connect="1" arrows="1" fold="1" page="1" pageScale="1" pageWidth="827" pageHeight="1169" math="0" shadow="0">
            <root>
                <mxCell id="0"/>
                <mxCell id="1" parent="0"/>
                <mxCell id="59" style="edgeStyle=none;html=1;exitX=0.5;exitY=1;exitDx=0;exitDy=0;entryX=0.5;entryY=0;entryDx=0;entryDy=0;" edge="1" parent="1" source="3" target="39">
                    <mxGeometry relative="1" as="geometry"/>
                </mxCell>
                <mxCell id="60" style="edgeStyle=none;html=1;exitX=0;exitY=1;exitDx=0;exitDy=0;entryX=0.5;entryY=0;entryDx=0;entryDy=0;" edge="1" parent="1" source="3" target="49">
                    <mxGeometry relative="1" as="geometry"/>
                </mxCell>
                <mxCell id="61" style="edgeStyle=none;html=1;exitX=1;exitY=1;exitDx=0;exitDy=0;entryX=0.5;entryY=0;entryDx=0;entryDy=0;" edge="1" parent="1" source="3" target="4">
                    <mxGeometry relative="1" as="geometry"/>
                </mxCell>
                <mxCell id="3" value="App" style="rounded=1;whiteSpace=wrap;html=1;" vertex="1" parent="1">
                    <mxGeometry x="354" y="160" width="120" height="60" as="geometry"/>
                </mxCell>
                <mxCell id="37" value="" style="group" vertex="1" connectable="0" parent="1">
                    <mxGeometry x="549" y="280" width="230" height="140" as="geometry"/>
                </mxCell>
                <mxCell id="68" style="edgeStyle=none;html=1;exitX=1;exitY=0.5;exitDx=0;exitDy=0;entryX=0;entryY=0.5;entryDx=0;entryDy=0;fontSize=7;" edge="1" parent="37" source="4" target="67">
                    <mxGeometry relative="1" as="geometry"/>
                </mxCell>
                <mxCell id="4" value="Article" style="whiteSpace=wrap;html=1;rounded=1;" vertex="1" parent="37">
                    <mxGeometry x="79.02564102564102" width="70.76923076923077" height="31.111111111111107" as="geometry"/>
                </mxCell>
                <mxCell id="14" value="Comment Section" style="whiteSpace=wrap;html=1;rounded=1;" vertex="1" parent="37">
                    <mxGeometry x="79.02564102564102" y="51.85185185185185" width="70.76923076923077" height="31.111111111111107" as="geometry"/>
                </mxCell>
                <mxCell id="15" value="" style="edgeStyle=none;html=1;" edge="1" parent="37" source="4" target="14">
                    <mxGeometry relative="1" as="geometry"/>
                </mxCell>
                <mxCell id="20" value="Comment" style="ellipse;whiteSpace=wrap;html=1;rounded=1;" vertex="1" parent="37">
                    <mxGeometry x="79.02564102564102" y="108.88888888888887" width="70.76923076923077" height="31.111111111111107" as="geometry"/>
                </mxCell>
                <mxCell id="21" value="" style="edgeStyle=none;html=1;" edge="1" parent="37" source="14" target="20">
                    <mxGeometry relative="1" as="geometry"/>
                </mxCell>
                <mxCell id="22" value="Comment" style="ellipse;whiteSpace=wrap;html=1;rounded=1;" vertex="1" parent="37">
                    <mxGeometry x="159.23076923076923" y="108.88888888888887" width="70.76923076923077" height="31.111111111111107" as="geometry"/>
                </mxCell>
                <mxCell id="27" style="edgeStyle=none;html=1;exitX=1;exitY=1;exitDx=0;exitDy=0;entryX=0.5;entryY=0;entryDx=0;entryDy=0;" edge="1" parent="37" source="14" target="22">
                    <mxGeometry relative="1" as="geometry"/>
                </mxCell>
                <mxCell id="24" value="Comment" style="ellipse;whiteSpace=wrap;html=1;rounded=1;" vertex="1" parent="37">
                    <mxGeometry y="108.88888888888887" width="70.76923076923077" height="31.111111111111107" as="geometry"/>
                </mxCell>
                <mxCell id="26" style="edgeStyle=none;html=1;exitX=0;exitY=1;exitDx=0;exitDy=0;entryX=0.5;entryY=0;entryDx=0;entryDy=0;" edge="1" parent="37" source="14" target="24">
                    <mxGeometry relative="1" as="geometry"/>
                </mxCell>
                <mxCell id="67" value="Like Button" style="rounded=1;whiteSpace=wrap;html=1;fontSize=7;" vertex="1" parent="37">
                    <mxGeometry x="169.62" y="5.56" width="50" height="20" as="geometry"/>
                </mxCell>
                <mxCell id="38" value="" style="group" vertex="1" connectable="0" parent="1">
                    <mxGeometry x="298" y="280" width="230" height="140" as="geometry"/>
                </mxCell>
                <mxCell id="66" style="edgeStyle=none;html=1;exitX=1;exitY=0.5;exitDx=0;exitDy=0;entryX=0;entryY=0.5;entryDx=0;entryDy=0;fontSize=7;" edge="1" parent="38" source="39" target="65">
                    <mxGeometry relative="1" as="geometry"/>
                </mxCell>
                <mxCell id="39" value="Article" style="whiteSpace=wrap;html=1;rounded=1;" vertex="1" parent="38">
                    <mxGeometry x="79.02564102564102" width="70.76923076923077" height="31.111111111111107" as="geometry"/>
                </mxCell>
                <mxCell id="40" value="Comment Section" style="whiteSpace=wrap;html=1;rounded=1;" vertex="1" parent="38">
                    <mxGeometry x="79.02564102564102" y="51.85185185185185" width="70.76923076923077" height="31.111111111111107" as="geometry"/>
                </mxCell>
                <mxCell id="41" value="" style="edgeStyle=none;html=1;" edge="1" parent="38" source="39" target="40">
                    <mxGeometry relative="1" as="geometry"/>
                </mxCell>
                <mxCell id="42" value="Comment" style="ellipse;whiteSpace=wrap;html=1;rounded=1;" vertex="1" parent="38">
                    <mxGeometry x="79.02564102564102" y="108.88888888888887" width="70.76923076923077" height="31.111111111111107" as="geometry"/>
                </mxCell>
                <mxCell id="43" value="" style="edgeStyle=none;html=1;" edge="1" parent="38" source="40" target="42">
                    <mxGeometry relative="1" as="geometry"/>
                </mxCell>
                <mxCell id="44" value="Comment" style="ellipse;whiteSpace=wrap;html=1;rounded=1;" vertex="1" parent="38">
                    <mxGeometry x="159.23076923076923" y="108.88888888888887" width="70.76923076923077" height="31.111111111111107" as="geometry"/>
                </mxCell>
                <mxCell id="45" style="edgeStyle=none;html=1;exitX=1;exitY=1;exitDx=0;exitDy=0;entryX=0.5;entryY=0;entryDx=0;entryDy=0;" edge="1" parent="38" source="40" target="44">
                    <mxGeometry relative="1" as="geometry"/>
                </mxCell>
                <mxCell id="46" value="Comment" style="ellipse;whiteSpace=wrap;html=1;rounded=1;" vertex="1" parent="38">
                    <mxGeometry y="108.88888888888887" width="70.76923076923077" height="31.111111111111107" as="geometry"/>
                </mxCell>
                <mxCell id="47" style="edgeStyle=none;html=1;exitX=0;exitY=1;exitDx=0;exitDy=0;entryX=0.5;entryY=0;entryDx=0;entryDy=0;" edge="1" parent="38" source="40" target="46">
                    <mxGeometry relative="1" as="geometry"/>
                </mxCell>
                <mxCell id="65" value="Like Button" style="rounded=1;whiteSpace=wrap;html=1;fontSize=7;" vertex="1" parent="38">
                    <mxGeometry x="169.62" y="5.56" width="50" height="20" as="geometry"/>
                </mxCell>
                <mxCell id="48" value="" style="group" vertex="1" connectable="0" parent="1">
                    <mxGeometry x="49" y="280" width="230" height="140" as="geometry"/>
                </mxCell>
                <mxCell id="49" value="Article" style="whiteSpace=wrap;html=1;rounded=1;" vertex="1" parent="48">
                    <mxGeometry x="79.02564102564102" width="70.76923076923077" height="31.111111111111107" as="geometry"/>
                </mxCell>
                <mxCell id="50" value="Comment Section" style="whiteSpace=wrap;html=1;rounded=1;" vertex="1" parent="48">
                    <mxGeometry x="79.02564102564102" y="51.85185185185185" width="70.76923076923077" height="31.111111111111107" as="geometry"/>
                </mxCell>
                <mxCell id="51" value="" style="edgeStyle=none;html=1;" edge="1" parent="48" source="49" target="50">
                    <mxGeometry relative="1" as="geometry"/>
                </mxCell>
                <mxCell id="52" value="Comment" style="ellipse;whiteSpace=wrap;html=1;rounded=1;" vertex="1" parent="48">
                    <mxGeometry x="79.02564102564102" y="108.88888888888887" width="70.76923076923077" height="31.111111111111107" as="geometry"/>
                </mxCell>
                <mxCell id="53" value="" style="edgeStyle=none;html=1;" edge="1" parent="48" source="50" target="52">
                    <mxGeometry relative="1" as="geometry"/>
                </mxCell>
                <mxCell id="54" value="Comment" style="ellipse;whiteSpace=wrap;html=1;rounded=1;" vertex="1" parent="48">
                    <mxGeometry x="159.23076923076923" y="108.88888888888887" width="70.76923076923077" height="31.111111111111107" as="geometry"/>
                </mxCell>
                <mxCell id="55" style="edgeStyle=none;html=1;exitX=1;exitY=1;exitDx=0;exitDy=0;entryX=0.5;entryY=0;entryDx=0;entryDy=0;" edge="1" parent="48" source="50" target="54">
                    <mxGeometry relative="1" as="geometry"/>
                </mxCell>
                <mxCell id="56" value="Comment" style="ellipse;whiteSpace=wrap;html=1;rounded=1;" vertex="1" parent="48">
                    <mxGeometry y="108.88888888888887" width="70.76923076923077" height="31.111111111111107" as="geometry"/>
                </mxCell>
                <mxCell id="57" style="edgeStyle=none;html=1;exitX=0;exitY=1;exitDx=0;exitDy=0;entryX=0.5;entryY=0;entryDx=0;entryDy=0;" edge="1" parent="48" source="50" target="56">
                    <mxGeometry relative="1" as="geometry"/>
                </mxCell>
                <mxCell id="74" style="edgeStyle=none;html=1;exitX=1;exitY=0.5;exitDx=0;exitDy=0;entryX=0;entryY=0.5;entryDx=0;entryDy=0;fontSize=7;" edge="1" target="75" parent="48">
                    <mxGeometry relative="1" as="geometry">
                        <mxPoint x="149.79487179487182" y="15.555555555555543" as="sourcePoint"/>
                    </mxGeometry>
                </mxCell>
                <mxCell id="75" value="Like Button" style="rounded=1;whiteSpace=wrap;html=1;fontSize=7;" vertex="1" parent="48">
                    <mxGeometry x="169.62" y="5.560000000000002" width="50" height="20" as="geometry"/>
                </mxCell>
                <mxCell id="77" value="&lt;b&gt;&lt;font style=&quot;font-size: 15px&quot;&gt;Component Tree&lt;/font&gt;&lt;/b&gt;" style="text;html=1;strokeColor=none;fillColor=none;align=center;verticalAlign=middle;whiteSpace=wrap;rounded=0;fontSize=7;" vertex="1" parent="1">
                    <mxGeometry x="214" y="90" width="400" height="30" as="geometry"/>
                </mxCell>
                <mxCell id="78" value="States/Props" style="text;html=1;strokeColor=none;fillColor=none;align=center;verticalAlign=middle;whiteSpace=wrap;rounded=0;fontSize=15;" vertex="1" parent="1">
                    <mxGeometry x="290" y="490" width="240" height="30" as="geometry"/>
                </mxCell>
                <mxCell id="85" value="" style="group" vertex="1" connectable="0" parent="1">
                    <mxGeometry x="83.5" y="750" width="161" height="187" as="geometry"/>
                </mxCell>
                <mxCell id="81" value="Article" style="whiteSpace=wrap;html=1;rounded=1;" vertex="1" parent="85">
                    <mxGeometry x="45.11564102564097" width="70.76923076923077" height="31.111111111111107" as="geometry"/>
                </mxCell>
                <mxCell id="82" value="&lt;h1 style=&quot;font-size: 10px&quot;&gt;&lt;span&gt;&lt;font style=&quot;font-size: 10px&quot;&gt;State&lt;/font&gt;&lt;/span&gt;&lt;/h1&gt;&lt;div style=&quot;font-size: 10px&quot;&gt;&lt;span&gt;&lt;font style=&quot;font-size: 10px&quot;&gt;- IsLiked: true/false&lt;/font&gt;&lt;/span&gt;&lt;/div&gt;&lt;div style=&quot;font-size: 10px&quot;&gt;&lt;span&gt;&lt;font style=&quot;font-size: 10px&quot;&gt;- Comments List - Initial state hard-coded comments from libs&lt;/font&gt;&lt;/span&gt;&lt;/div&gt;&lt;div style=&quot;font-size: 10px&quot;&gt;&lt;span&gt;&lt;font style=&quot;font-size: 10px&quot;&gt;&lt;br&gt;&lt;/font&gt;&lt;/span&gt;&lt;/div&gt;&lt;div style=&quot;font-size: 10px&quot;&gt;Props&lt;/div&gt;&lt;div style=&quot;font-size: 10px&quot;&gt;&lt;br&gt;&lt;/div&gt;&lt;div style=&quot;font-size: 10px&quot;&gt;- Title&lt;/div&gt;&lt;div style=&quot;font-size: 10px&quot;&gt;- Text&lt;/div&gt;" style="text;html=1;strokeColor=none;fillColor=none;spacing=5;spacingTop=-20;whiteSpace=wrap;overflow=hidden;rounded=0;fontSize=15;" vertex="1" parent="85">
                    <mxGeometry y="57" width="161" height="130" as="geometry"/>
                </mxCell>
                <mxCell id="86" value="" style="group" vertex="1" connectable="0" parent="1">
                    <mxGeometry x="329.5" y="750.0018518518518" width="161" height="186.99814814814818" as="geometry"/>
                </mxCell>
                <mxCell id="80" value="Comment Section" style="whiteSpace=wrap;html=1;rounded=1;" vertex="1" parent="86">
                    <mxGeometry x="45.115641025641025" width="70.76923076923077" height="31.111111111111107" as="geometry"/>
                </mxCell>
                <mxCell id="83" value="&lt;h1 style=&quot;font-size: 10px&quot;&gt;State&lt;/h1&gt;&lt;h1 style=&quot;font-size: 10px&quot;&gt;&lt;span style=&quot;font-weight: normal&quot;&gt;None&lt;/span&gt;&lt;/h1&gt;&lt;h1 style=&quot;font-size: 10px&quot;&gt;&lt;span&gt;Props&lt;/span&gt;&lt;/h1&gt;&lt;div style=&quot;font-size: 10px&quot;&gt;- Comments List&lt;/div&gt;&lt;div style=&quot;font-size: 10px&quot;&gt;- Add/Delete comment functions&lt;/div&gt;" style="text;html=1;strokeColor=none;fillColor=none;spacing=5;spacingTop=-20;whiteSpace=wrap;overflow=hidden;rounded=0;fontSize=15;" vertex="1" parent="86">
                    <mxGeometry y="56.998148148148175" width="161" height="130" as="geometry"/>
                </mxCell>
                <mxCell id="91" value="" style="group" vertex="1" connectable="0" parent="1">
                    <mxGeometry x="329.5" y="530" width="161" height="180" as="geometry"/>
                </mxCell>
                <mxCell id="89" value="App" style="rounded=1;whiteSpace=wrap;html=1;" vertex="1" parent="91">
                    <mxGeometry x="17.5" width="120" height="60" as="geometry"/>
                </mxCell>
                <mxCell id="90" value="&lt;h1 style=&quot;font-size: 10px&quot;&gt;State&lt;/h1&gt;&lt;h1 style=&quot;font-size: 10px&quot;&gt;&lt;span style=&quot;font-weight: normal&quot;&gt;- Articles List: Initial state articles from libs&lt;/span&gt;&lt;/h1&gt;&lt;h1 style=&quot;font-size: 10px&quot;&gt;&lt;span&gt;Props&lt;/span&gt;&lt;br&gt;&lt;/h1&gt;&lt;div style=&quot;font-size: 10px&quot;&gt;- Comments List&lt;/div&gt;&lt;div style=&quot;font-size: 10px&quot;&gt;- Add/Delete comment function&lt;/div&gt;" style="text;html=1;strokeColor=none;fillColor=none;spacing=5;spacingTop=-20;whiteSpace=wrap;overflow=hidden;rounded=0;fontSize=15;" vertex="1" parent="91">
                    <mxGeometry y="80" width="161" height="100" as="geometry"/>
                </mxCell>
                <mxCell id="92" value="" style="group" vertex="1" connectable="0" parent="1">
                    <mxGeometry x="560" y="749.9988888888888" width="161" height="187.0011111111112" as="geometry"/>
                </mxCell>
                <mxCell id="79" value="Comment" style="ellipse;whiteSpace=wrap;html=1;rounded=1;" vertex="1" parent="92">
                    <mxGeometry x="50" width="70.76923076923077" height="31.111111111111107" as="geometry"/>
                </mxCell>
                <mxCell id="87" value="&lt;h1 style=&quot;font-size: 10px&quot;&gt;&lt;span&gt;&lt;font style=&quot;font-size: 10px&quot;&gt;State&lt;/font&gt;&lt;/span&gt;&lt;/h1&gt;&lt;div style=&quot;font-size: 10px&quot;&gt;&lt;span&gt;&lt;font style=&quot;font-size: 10px&quot;&gt;- IsLiked: true/false&lt;/font&gt;&lt;/span&gt;&lt;/div&gt;&lt;div style=&quot;font-size: 10px&quot;&gt;&lt;span&gt;&lt;font style=&quot;font-size: 10px&quot;&gt;&lt;br&gt;&lt;/font&gt;&lt;/span&gt;&lt;/div&gt;&lt;div style=&quot;font-size: 10px&quot;&gt;Props&lt;/div&gt;&lt;div style=&quot;font-size: 10px&quot;&gt;&lt;br&gt;&lt;/div&gt;&lt;div style=&quot;font-size: 10px&quot;&gt;- Author&lt;/div&gt;&lt;div style=&quot;font-size: 10px&quot;&gt;- Text&lt;/div&gt;&lt;div style=&quot;font-size: 10px&quot;&gt;&lt;br&gt;&lt;/div&gt;" style="text;html=1;strokeColor=none;fillColor=none;spacing=5;spacingTop=-20;whiteSpace=wrap;overflow=hidden;rounded=0;fontSize=15;" vertex="1" parent="92">
                    <mxGeometry y="57.001111111111186" width="161" height="130" as="geometry"/>
                </mxCell>
            </root>
        </mxGraphModel>
    </diagram>
</mxfile>